<svg width="96" height="28" viewBox="0 0 96 28" fill="none" xmlns="http://www.w3.org/2000/svg">
<path d="M10.76 -1.90735e-06H0.2V28H10.76C19 28 24.96 22.12 24.96 14C24.96 5.88 19 -1.90735e-06 10.76 -1.90735e-06ZM10.64 22.4H6.24V5.64H10.64C15.44 5.64 18.76 9.04 18.76 14C18.76 18.88 15.44 22.4 10.64 22.4ZM45.2484 28H52.0084L45.8084 17.44C48.9284 15.92 50.9284 12.96 50.9284 9.28C50.9284 3.88 46.7284 -1.90735e-06 41.1284 -1.90735e-06H29.8484V28H35.8884V18.48H39.7684L45.2484 28ZM35.8884 5.6H40.7284C43.2884 5.6 44.7684 7.16 44.7684 9.24C44.7684 11.36 43.2884 12.88 40.7284 12.88H35.8884V5.6ZM62.3338 22.4V16.64H72.0538V11.16H62.3338V5.6H73.0938V-1.90735e-06H56.2938V28H73.5338V22.4H62.3338ZM84.6775 22.4V16.64H94.3975V11.16H84.6775V5.6H95.4375V-1.90735e-06H78.6375V28H95.8775V22.4H84.6775Z" fill="url(#paint0_linear_2_4789)"/>
<defs>
<linearGradient id="paint0_linear_2_4789" x1="-33.3" y1="32" x2="125.642" y2="32" gradientUnits="userSpaceOnUse">
<stop stop-color="white"/>
<stop offset="0.0001" stop-color="#B5B5B5"/>
<stop offset="0.478003" stop-color="white"/>
<stop offset="1" stop-color="#B5B5B5"/>
</linearGradient>
</defs>
</svg>
