<svg width="24" height="18" viewBox="0 0 24 18" fill="none" xmlns="http://www.w3.org/2000/svg">
<g clip-path="url(#clip0_2_4326)">
<path d="M0 11.71V14.8842C0 16.2003 1.04516 17.1293 2.32258 17.1293H21.6774C22.9548 17.1293 24 16.2003 24 14.8842V11.71H0Z" fill="#1EB53A"/>
<path d="M21.6774 0.871094H2.32258C1.04516 0.871094 0 1.80013 0 3.11625V6.29045H24V3.11625C24 1.80013 22.9548 0.871094 21.6774 0.871094Z" fill="#0099B5"/>
<path d="M24 6.29053H0V11.7099H24V6.29053Z" fill="white"/>
<path d="M21.6774 17.1293C22.9548 17.1293 24 16.2003 24 14.8842V11.71H15.2516L21.6774 17.1293Z" fill="#11A325"/>
<path d="M21.6774 0.871094H2.32257L8.70967 6.29045H24V3.11625C24 1.80013 22.9548 0.871094 21.6774 0.871094Z" fill="#078C9E"/>
<path d="M15.2516 11.7099H24V6.29053H8.70966L15.2516 11.7099Z" fill="#E1EAE2"/>
<path d="M21.6774 0.871094H2.32257L20.2452 6.29045H24V3.11625C24 1.80013 22.9548 0.871094 21.6774 0.871094Z" fill="#048089"/>
<path d="M23.9999 7.3744V6.29053H20.0516L23.9999 7.3744Z" fill="#C2CEC3"/>
<path d="M24 14.8453C24 16.3163 22.9548 17.1292 21.6774 17.1292H2.32258C1.04516 17.1292 0 16.1228 0 14.8066" fill="#098914"/>
<path d="M24 5.90332H0V6.29042H24V5.90332Z" fill="#CE1126"/>
<path d="M8.70971 6.29042H24V5.90332H8.20648L8.70971 6.29042Z" fill="#A8071E"/>
<path d="M24 11.71H0V12.0971H24V11.71Z" fill="#CE1126"/>
<path d="M15.2516 11.71L15.7161 12.0971H24V11.71H15.2516Z" fill="#A8071E"/>
<path d="M3.63872 1.95473C3.5613 1.95473 3.48388 1.91602 3.40646 1.91602C2.59356 1.91602 1.89679 2.57408 1.89679 3.4257C1.89679 4.27731 2.55485 4.93538 3.40646 4.93538C3.48388 4.93538 3.5613 4.93538 3.63872 4.89667C2.94195 4.78054 2.40001 4.16118 2.40001 3.4257C2.40001 2.6515 2.94195 2.07085 3.63872 1.95473Z" fill="white"/>
<path d="M4.37421 4.50947L4.29679 4.31592L4.21937 4.50947H4.02582L4.18066 4.66431L4.14195 4.85785L4.29679 4.74172L4.49033 4.85785L4.41291 4.66431L4.60646 4.50947H4.37421Z" fill="white"/>
<path d="M5.57422 4.50947L5.49681 4.31592L5.41939 4.50947H5.22584L5.38068 4.66431L5.34197 4.85785L5.49681 4.74172L5.69035 4.85785L5.61293 4.66431L5.76777 4.50947H5.57422Z" fill="white"/>
<path d="M6.77418 4.50947L6.69676 4.31592L6.61934 4.50947H6.42579L6.58063 4.66431L6.50321 4.85785L6.69676 4.74172L6.89031 4.85785L6.81289 4.66431L6.96773 4.50947H6.77418Z" fill="white"/>
<path d="M7.9742 4.50947L7.89678 4.31592L7.81936 4.50947H7.62581L7.78065 4.66431L7.70323 4.85785L7.89678 4.74172L8.09032 4.85785L8.01291 4.66431L8.16774 4.50947H7.9742Z" fill="white"/>
<path d="M9.17419 4.50947L9.09677 4.31592L9.01935 4.50947H8.82581L8.98064 4.66431L8.90323 4.85785L9.09677 4.74172L9.25161 4.85785L9.2129 4.66431L9.36774 4.50947H9.17419Z" fill="white"/>
<path d="M5.49681 3.11621L5.4581 3.30976H5.22584L5.41939 3.4646L5.34197 3.65815L5.49681 3.54202L5.69035 3.65815L5.61293 3.4646L5.80648 3.30976H5.57422L5.49681 3.11621Z" fill="white"/>
<path d="M6.69676 3.11621L6.65805 3.30976H6.42579L6.61934 3.4646L6.54192 3.65815L6.69676 3.54202L6.89031 3.65815L6.81289 3.4646L7.00644 3.30976H6.77418L6.69676 3.11621Z" fill="white"/>
<path d="M7.89678 3.11621L7.85807 3.30976H7.62581L7.81936 3.4646L7.74194 3.65815L7.89678 3.54202L8.09032 3.65815L8.01291 3.4646L8.20645 3.30976H7.9742L7.89678 3.11621Z" fill="white"/>
<path d="M9.17419 3.30976L9.09677 3.11621L9.05806 3.30976H8.82581L8.98064 3.4646L8.94194 3.65815L9.09677 3.54202L9.29032 3.65815L9.2129 3.4646L9.40645 3.30976H9.17419Z" fill="white"/>
<path d="M6.58068 2.2644L6.50326 2.45795L6.6968 2.34182L6.85164 2.45795L6.81293 2.2644L6.96777 2.10956H6.77422L6.6968 1.91602L6.61938 2.10956H6.38713L6.58068 2.2644Z" fill="white"/>
<path d="M7.78063 2.2644L7.70321 2.45795L7.89676 2.34182L8.0516 2.45795L8.01289 2.2644L8.16773 2.10956H7.97418L7.89676 1.91602L7.81934 2.10956H7.58708L7.78063 2.2644Z" fill="white"/>
<path d="M8.98065 2.2644L8.90323 2.45795L9.09678 2.34182L9.25161 2.45795L9.2129 2.2644L9.36774 2.10956H9.13549L9.09678 1.91602L9.01936 2.10956H8.7871L8.98065 2.2644Z" fill="white"/>
</g>
<defs>
<clipPath id="clip0_2_4326">
<rect y="0.871094" width="24" height="16.2581" rx="2" fill="white"/>
</clipPath>
</defs>
</svg>
